<svg width="86" height="59" fill="none" xmlns="http://www.w3.org/2000/svg"><g clip-path="url(#clip0_34_97)"><path d="M2.027 59c-.85 0-1.471-.167-2.027-.735l.687-.702c.36.368.817.468 1.34.468.622 0 .981-.234.981-.701a.67.67 0 00-.163-.468c-.098-.1-.229-.167-.49-.2l-.655-.1c-.457-.068-.817-.235-1.079-.469C.36 55.826.23 55.46.23 54.991c0-1.002.72-1.704 1.93-1.704.751 0 1.307.2 1.798.668l-.687.702c-.36-.334-.752-.401-1.145-.401-.588 0-.85.334-.85.702 0 .133.033.3.164.4.098.1.294.2.523.234l.654.1c.49.067.817.201 1.046.435.295.3.425.701.425 1.203-.032 1.069-.915 1.67-2.06 1.67zm5.167-2.372v2.305H6.115v-2.305l-1.668-3.34h1.177l1.047 2.27 1.014-2.27h1.177l-1.668 3.34zM11.052 59c-.85 0-1.471-.167-2.027-.735l.687-.702c.36.368.817.468 1.34.468.622 0 .981-.234.981-.701a.67.67 0 00-.163-.468c-.098-.1-.23-.167-.49-.2l-.655-.1c-.457-.068-.817-.235-1.079-.469-.261-.267-.392-.634-.392-1.102 0-1.002.72-1.704 1.93-1.704.751 0 1.307.2 1.798.668l-.687.702c-.36-.334-.752-.401-1.145-.401-.588 0-.85.334-.85.702 0 .133.033.3.164.4.098.1.294.2.523.234l.654.1c.49.067.817.201 1.046.435.295.3.425.701.425 1.203-.032 1.069-.915 1.67-2.06 1.67zm5.167-4.71v4.677H15.14v-4.678h-1.439v-.969h3.957v.97h-1.439zm2.321 4.677V53.32h3.63v.97h-2.55v1.336h2.19v.968h-2.19v1.37h2.55v.97h-3.63v.033zm6.54.033a2.023 2.023 0 01-1.504-.635c-.556-.568-.556-1.27-.556-2.238 0-.969 0-1.67.556-2.239.393-.4.883-.634 1.505-.634 1.046 0 1.83.601 2.027 1.77h-1.08c-.097-.467-.391-.802-.915-.802-.294 0-.523.1-.686.301-.197.234-.262.501-.262 1.604 0 1.102.065 1.37.262 1.603a.942.942 0 00.686.301c.556 0 .818-.334.916-.802h1.079C26.912 58.4 26.094 59 25.081 59zm5.886-.033v-2.373h-1.864v2.373h-1.079V53.32h1.08v2.306h1.863V53.32h1.08v5.647h-1.08zm7.325 0l-.327-1.003h-1.962l-.327 1.003h-1.111l1.994-5.647h.85l2.028 5.647H38.29zm-1.308-4.01l-.686 2.038h1.373l-.687-2.037zm6.377 4.01l-2.191-3.475v3.475h-1.08V53.32h.95l2.19 3.441v-3.44h1.08v5.646h-.95zm5.395 0l-.327-1.003h-1.962l-.327 1.003h-1.112l1.995-5.647h.85l2.028 5.647h-1.145zm-1.308-4.01l-.687 2.038h1.374l-.687-2.037zm3.107 4.01V53.32h1.079v4.678h2.518v.969h-3.597zm6.572-2.339v2.305h-1.079v-2.305l-1.668-3.34h1.178l1.046 2.27 1.014-2.27h1.177l-1.668 3.34zm4.448-2.338v4.677h-1.08v-4.678h-1.438v-.969h3.956v.97h-1.438zm2.321 4.677V53.32h1.08v5.647h-1.08zM68.08 59a2.023 2.023 0 01-1.504-.635c-.555-.568-.555-1.27-.555-2.238 0-.969 0-1.67.555-2.239.393-.4.883-.634 1.505-.634 1.046 0 1.83.601 2.027 1.77h-1.08c-.097-.467-.392-.802-.915-.802-.294 0-.523.1-.686.301-.197.234-.262.501-.262 1.604 0 1.102.065 1.37.262 1.603a.942.942 0 00.686.301c.556 0 .818-.334.916-.802h1.079C69.945 58.4 69.127 59 68.081 59zm4.513 0c-.85 0-1.471-.167-2.027-.735l.687-.702c.36.368.817.468 1.34.468.622 0 .981-.234.981-.701a.67.67 0 00-.163-.468c-.098-.1-.23-.167-.49-.2l-.655-.1c-.458-.068-.817-.235-1.079-.469-.261-.267-.392-.634-.392-1.102 0-1.002.72-1.704 1.93-1.704.751 0 1.307.2 1.798.668l-.687.702c-.36-.334-.752-.401-1.145-.401-.588 0-.85.334-.85.702 0 .133.033.3.164.4.098.1.294.2.523.234l.654.1c.49.067.817.201 1.046.435.295.3.425.701.425 1.203-.032 1.069-.915 1.67-2.06 1.67zm6.409 0c-.817 0-1.373-.2-1.896-.735l.392-.4c.458.467.883.634 1.504.634.818 0 1.308-.401 1.308-1.036 0-.3-.098-.534-.262-.701-.163-.167-.327-.2-.719-.268l-.654-.1c-.425-.067-.785-.2-1.014-.434-.294-.267-.425-.602-.425-1.07 0-.968.687-1.603 1.766-1.603.72 0 1.177.167 1.635.635l-.392.4c-.327-.3-.72-.467-1.276-.467-.752 0-1.177.434-1.177 1.036 0 .267.066.5.262.635.163.166.458.267.752.3l.621.1c.523.067.785.2 1.014.401.294.268.458.635.458 1.103.032.969-.72 1.57-1.897 1.57zm6.377-.033l-.458-1.27H82.5l-.458 1.27h-.621l2.027-5.647h.49l2.028 5.647h-.588zm-1.635-4.778l-1.047 2.974h2.06l-1.013-2.974z" fill="#B1B3B4"/><path fill-rule="evenodd" clip-rule="evenodd" d="M63.764 22.685c0 12.528-9.94 22.684-22.203 22.684-12.262 0-22.203-10.156-22.203-22.684C19.358 10.156 29.3 0 41.561 0c12.263 0 22.203 10.156 22.203 22.685z" fill="url(#paint0_linear_34_97)"/><path fill-rule="evenodd" clip-rule="evenodd" d="M54.87 22.685c0 7.517-5.951 13.597-13.309 13.597-7.357 0-13.309-6.08-13.309-13.597 0-7.517 5.952-13.598 13.31-13.598 7.357 0 13.308 6.08 13.308 13.598z" fill="#fff"/><path fill-rule="evenodd" clip-rule="evenodd" d="M32.798 33.409c5.657-4.744 7.357-13.664 12.099-19.143 2.19-2.506 5.035-4.277 9.156-4.577 1.275-.1 2.68.066 4.152.066a12.3 12.3 0 001.57 0v-.133c-2.681-1.136-4.807-2.138-7.848-2.339-4.709-.334-8.208.902-10.987 3.007-.033.033-.065.067-.098.067-.066.067-.164.133-.229.2-7.26 5.58-9.221 16.838-15.794 22.952-2.027 1.87-4.807 3.408-8.927 3.174v.133c5.526 1.237 10.89.1 14.65-2.004.752-.367 1.536-.802 2.256-1.403z" fill="#B3A06C"/><path fill-rule="evenodd" clip-rule="evenodd" d="M40.09 38.788c5.624-4.744 7.357-13.665 12.099-19.144 2.19-2.505 5.003-4.276 9.155-4.577 1.276-.1 2.682.067 4.153.067.49.034 1.014.034 1.57 0v-.133c-2.681-1.136-4.807-2.139-7.848-2.34-4.709-.333-8.208.903-10.987 3.041-.033.034-.065.067-.098.067-.066.067-.164.134-.229.2-7.357 5.546-9.32 16.805-15.86 22.919-2.027 1.87-4.774 3.408-8.926 3.174v.133c5.526 1.236 10.889.067 14.65-2.004a8.827 8.827 0 002.32-1.403z" fill="#B3A06C"/></g><defs><linearGradient id="paint0_linear_34_97" x1="25.869" y1="38.73" x2="57.947" y2="7.333" gradientUnits="userSpaceOnUse"><stop stop-color="#B1B3B4"/><stop offset="1" stop-color="#fff"/></linearGradient><clipPath id="clip0_34_97"><path fill="#fff" d="M0 0h86v59H0z"/></clipPath></defs></svg>