<svg xmlns="http://www.w3.org/2000/svg" xmlns:xlink="http://www.w3.org/1999/xlink" viewBox="0 0 325 295"><defs><linearGradient id="a"><stop offset="0" stop-color="#555"/><stop offset="1" stop-color="#fff"/></linearGradient><linearGradient gradientTransform="translate(.59 -2)" gradientUnits="userSpaceOnUse" y2="70.056" x2="250.121" y1="222.208" x1="85.38" id="b" xlink:href="#a"/></defs><path d="M163.594 28.102A118.219 118.219 0 0045.47 146.32a118.219 118.219 0 00118.218 118.22 118.219 118.219 0 00118.22-118.22 118.219 118.219 0 00-118.22-118.218 118.219 118.219 0 00-.095 0zm-.242 46.248a71.971 71.971 0 01.337 0 71.971 71.971 0 0171.971 71.97 71.971 71.971 0 01-71.97 71.973 71.971 71.971 0 01-71.971-71.973 71.971 71.971 0 0171.633-71.97z" fill="url(#b)" fill-rule="evenodd"/><path d="M216.4 99.65q-6.75-7.55-14.93-12.76-.25-.21.19-.44 12.47-6.27 26.32-7.4.63-.05 1.07.39l13.91 13.89a.32.32 0 01-.21.55q-13.68.93-26.35 5.77z" fill="#f1f1f0"/><path d="M210.303 65.477c-10.718-.073-21.033 1.685-30.944 5.273l-11.029 5.11c-14.51 9.19-25.9 19.9-35.51 34.41-13.36 20.18-23.34 41.7-35.4 62.36-8.64 14.8-19.91 28.98-34.05 38.05-11.7 7.09-23.18 9.05-36.76 8.82-.434-.007-.61.204-.53.63.033.148.18.246.44.3 14.7 3.126 29.547 3.42 44.54.88 8.834-1.493 17.444-4.094 25.83-7.8 7.64-3.37 15.15-6.59 21.42-12.13 20.77-18.92 31.59-45.93 44.19-70.36 9.13-17.71 20.18-33.59 37.24-43.59.547-.32 1.124-.5 1.73-.54-.166-.14-.103-.287.19-.44 8.313-4.18 17.087-6.646 26.32-7.4 10.338-1.276 21.139-.846 31.614-1.39-10.926-5.832-31.569-11.815-44.674-12.04a95.947 95.947 0 00-4.617-.143zm32.426 28.367l.021.037c-9.12.62-17.903 2.543-26.35 5.77-46.51 19.95-60.15 71.45-85.74 109.93-9.3 13.85-20.96 26.619-36.51 33.429-9.37 3.99-18.88 5.09-29.11 4.65-.208-.007-.324.094-.35.3l-.04.26a.6.6 0 00.48.67c13.28 2.627 26.666 3.083 40.16 1.37 16.41-2.2 30.46-7.59 43.83-14.88 2.252-1.232 4.696-2.967 7.33-5.2l11.56-11.93a3.37 3.37 0 01.82-1.06c18.8-25.13 27.91-55.37 46.42-80.46 3.88-5.266 8.677-10.27 14.39-15.01 8.12-6.446 17.24-10.76 27.36-12.94 5.847-1.26 11.897-1.856 18.15-1.79 7.54.1 14.823.217 21.85.35.747.013 1.32-.034 1.72-.14.92-.234.95-.547.09-.94a187.106 187.106 0 00-27.76-10.2c-8.962-2.266-20.097-2.4-28.322-2.216z" fill="#b3a06c"/></svg>