<svg xmlns="http://www.w3.org/2000/svg" fill="none" height="45.369" width="51.175"><path fill-rule="evenodd" clip-rule="evenodd" d="M47.872 22.685c0 12.528-9.94 22.684-22.203 22.684-12.262 0-22.203-10.156-22.203-22.684C3.466 10.156 13.408 0 25.669 0c12.263 0 22.203 10.156 22.203 22.685z" fill="url(#paint0_linear_34_97)"/><path fill-rule="evenodd" clip-rule="evenodd" d="M38.978 22.685c0 7.517-5.951 13.597-13.309 13.597-7.357 0-13.309-6.08-13.309-13.597 0-7.517 5.952-13.598 13.31-13.598 7.357 0 13.308 6.08 13.308 13.598z" fill="#fff"/><path fill-rule="evenodd" clip-rule="evenodd" d="M16.906 33.409c5.657-4.744 7.357-13.664 12.099-19.143 2.19-2.506 5.035-4.277 9.156-4.577 1.275-.1 2.68.066 4.152.066a12.3 12.3 0 001.57 0v-.133c-2.681-1.136-4.807-2.138-7.848-2.339-4.709-.334-8.208.902-10.987 3.007-.033.033-.065.067-.098.067-.066.067-.164.133-.229.2-7.26 5.58-9.221 16.838-15.794 22.952C6.9 35.379 4.12 36.917 0 36.683v.133c5.526 1.237 10.89.1 14.65-2.004.752-.367 1.536-.802 2.256-1.403z" fill="#B3A06C"/><path fill-rule="evenodd" clip-rule="evenodd" d="M24.198 38.788c5.624-4.744 7.357-13.665 12.099-19.144 2.19-2.505 5.003-4.276 9.155-4.577 1.276-.1 2.682.067 4.153.067.49.034 1.014.034 1.57 0v-.133c-2.681-1.136-4.807-2.139-7.848-2.34-4.709-.333-8.208.903-10.987 3.041-.033.034-.065.067-.098.067-.066.067-.164.134-.229.2-7.357 5.546-9.32 16.805-15.86 22.919-2.027 1.87-4.774 3.408-8.926 3.174v.133c5.526 1.236 10.889.067 14.65-2.004a8.827 8.827 0 002.32-1.403z" fill="#B3A06C"/><defs id="defs853"><linearGradient gradientTransform="translate(-15.892)" gradientUnits="userSpaceOnUse" y2="7.333" x2="57.947" y1="38.73" x1="25.869" id="paint0_linear_34_97"><stop id="stop845" stop-color="#B1B3B4"/><stop id="stop847" stop-color="#fff" offset="1"/></linearGradient><clipPath id="clip0_34_97"><path id="path850" d="M0 0h86v59H0z" fill="#fff"/></clipPath></defs></svg>