<?xml version="1.0" standalone="non"?>
<!DOCTYPE svg PUBLIC "-//W3C//DTD SVG 20010904//EN"
 "http://www.w3.org/TR/2001/REC-SVG-20010904/DTD/svg10.dtd">
<svg version="1.0" xmlns="http://www.w3.org/2000/svg"
 width="650.000000pt" height="650.000000pt" viewBox="0 0 650.000000 650.000000"
 preserveAspectRatio="xMidYMid meet">
<metadata>
Created by potrace 1.14, written by Peter Selinger 2001-2017
</metadata>
<g transform="translate(0.000000,650.000000) scale(0.100000,-0.100000)"
fill="#000000" stroke="none">
<path d="M3118 5635 c-2 -2 -32 -6 -68 -9 -36 -3 -78 -8 -95 -10 -88 -12 -131
-19 -136 -22 -3 -2 -21 -6 -39 -9 -214 -38 -606 -197 -767 -312 -17 -13 -34
-23 -38 -23 -7 0 -188 -135 -238 -178 -59 -51 -223 -217 -273 -277 -60 -71
-184 -241 -184 -251 0 -4 -6 -15 -14 -23 -7 -9 -38 -61 -67 -116 -48 -89 -64
-122 -115 -240 -24 -56 -54 -140 -59 -163 -2 -12 -7 -27 -10 -33 -8 -12 -53
-188 -61 -238 -3 -18 -8 -43 -10 -55 -2 -11 -7 -39 -10 -61 -3 -22 -8 -58 -11
-80 -14 -101 -10 -452 7 -565 25 -164 28 -184 39 -213 5 -14 8 -27 6 -29 -2
-2 3 -26 11 -53 8 -28 17 -58 19 -68 9 -40 55 -168 76 -209 5 -10 9 -22 9 -28
0 -16 110 -236 154 -308 36 -60 37 -64 20 -77 -55 -40 -256 -124 -337 -140
-133 -26 -198 -33 -321 -34 -71 -1 -87 -4 -78 -13 7 -7 22 -13 35 -14 12 -1
33 -5 47 -8 14 -4 45 -9 70 -11 25 -3 77 -10 115 -15 70 -8 438 -6 485 3 39 8
133 19 154 19 10 -1 25 -11 34 -24 45 -66 306 -311 395 -371 l38 -26 -29 -15
c-38 -20 -190 -64 -240 -70 -20 -3 -37 -5 -37 -6 0 -4 -100 -11 -195 -14 -125
-5 -116 -4 -104 -16 5 -5 27 -12 49 -15 22 -3 65 -10 95 -15 172 -29 473 -31
673 -5 18 2 55 -10 105 -35 100 -50 208 -97 242 -105 19 -5 138 -45 165 -55
48 -19 268 -62 390 -77 76 -10 431 -10 510 -1 118 14 140 18 215 34 14 3 36 7
50 10 288 57 670 236 925 433 96 75 115 91 226 201 147 146 282 321 377 485
26 47 111 218 129 261 41 97 65 161 68 174 2 8 15 52 29 98 62 204 90 409 90
652 0 189 -9 292 -39 455 -12 63 -66 268 -79 300 l-14 34 233 -3 c129 -2 239
0 245 4 7 4 -9 17 -37 30 -75 36 -349 138 -442 165 -46 14 -85 26 -86 27 -2 2
-24 44 -50 93 -26 50 -76 135 -112 190 -59 89 -84 123 -184 247 -61 76 -217
226 -314 303 -27 22 -52 43 -55 46 -9 10 -154 107 -220 147 -53 32 -190 100
-305 152 -75 34 -321 111 -400 125 -30 5 -56 10 -105 20 -24 5 -66 10 -155 21
-43 5 -393 13 -397 9z m237 -924 l60 -1 -40 -25 c-22 -13 -47 -28 -55 -31 -8
-4 -17 -10 -20 -14 -3 -3 -18 -14 -35 -24 -16 -11 -34 -23 -40 -28 -5 -4 -48
-38 -95 -75 -112 -88 -350 -328 -350 -353 0 -5 -4 -10 -9 -12 -12 -4 -131
-173 -131 -186 0 -6 -3 -12 -8 -14 -8 -3 -104 -152 -138 -213 -46 -84 -78
-140 -83 -145 -3 -3 -14 -21 -23 -40 -9 -19 -35 -66 -56 -105 -21 -38 -58
-106 -82 -150 -62 -115 -220 -403 -246 -450 -13 -22 -31 -55 -40 -72 -19 -39
-29 -36 -44 15 -6 20 -14 44 -17 52 -11 27 -13 34 -33 120 -44 189 -46 410 -5
605 77 370 295 690 624 915 29 20 131 78 159 90 12 5 41 18 65 29 82 37 293
96 357 100 26 1 135 13 137 15 1 1 21 1 45 -1 24 -1 70 -2 103 -2z m698 -261
c7 -6 39 -31 72 -56 33 -25 92 -77 132 -115 l71 -69 -91 -46 c-294 -149 -543
-370 -768 -684 -30 -42 -58 -83 -64 -91 -5 -9 -19 -29 -29 -45 -69 -104 -82
-125 -185 -309 -34 -60 -68 -121 -76 -135 -8 -14 -29 -54 -47 -90 -18 -36 -35
-67 -38 -70 -4 -3 -23 -39 -44 -80 -21 -41 -42 -82 -46 -90 -5 -8 -33 -58 -61
-110 -28 -52 -65 -120 -82 -150 -36 -66 -187 -310 -191 -310 -3 0 -54 29 -114
65 -9 6 -43 30 -76 54 l-58 43 70 72 c94 95 131 137 197 226 31 41 63 83 71
93 8 9 14 22 14 27 0 6 4 10 9 10 5 0 11 8 15 18 3 9 24 44 46 77 22 33 43 67
47 75 3 8 16 31 28 50 12 19 50 89 85 155 34 66 67 124 71 130 5 5 9 17 9 27
0 10 5 18 10 18 6 0 10 9 10 19 0 11 3 21 8 23 4 2 58 107 121 233 144 291
271 508 359 615 12 14 34 41 49 60 30 38 197 206 229 230 123 95 195 140 222
140 7 0 18 -5 25 -10z m577 -700 c0 -10 4 -21 9 -24 7 -5 22 -57 26 -91 1 -5
4 -20 9 -32 20 -61 38 -213 38 -325 0 -75 -11 -228 -17 -238 -2 -3 -6 -23 -9
-45 -8 -53 -65 -237 -78 -252 -6 -7 -8 -13 -4 -13 3 0 -14 -40 -38 -88 -193
-384 -526 -655 -936 -762 -25 -7 -55 -14 -67 -16 -13 -2 -35 -6 -50 -9 -16 -3
-57 -8 -93 -12 -58 -5 -63 -4 -50 9 31 32 50 59 50 68 0 6 4 10 9 10 5 0 13 9
16 20 3 11 12 26 18 32 14 15 59 83 86 131 10 18 45 77 76 132 32 55 113 210
181 345 68 135 127 250 131 255 4 6 32 58 61 115 29 58 57 112 62 120 46 76
90 153 90 156 0 2 25 40 55 85 30 45 55 85 55 89 0 5 3 10 8 12 4 2 31 35 61
73 30 39 91 106 135 151 133 132 166 153 166 104z"/>
</g>
</svg>
