<?xml version="1.0" encoding="UTF-8" standalone="non"?>
<svg
   xmlns:dc="http://purl.org/dc/elements/1.1/"
   xmlns:cc="http://creativecommons.org/ns#"
   xmlns:rdf="http://www.w3.org/1999/02/22-rdf-syntax-ns#"
   xmlns:svg="http://www.w3.org/2000/svg"
   xmlns="http://www.w3.org/2000/svg"
   xmlns:xlink="http://www.w3.org/1999/xlink"
   xmlns:sodipodi="http://sodipodi.sourceforge.net/DTD/sodipodi-0.dtd"
   xmlns:inkscape="http://www.inkscape.org/namespaces/inkscape"
   inkscape:version="1.0beta1 (fe3e306, 2019-09-17)"
   sodipodi:docname="logo_grand_rond (2).svg"
   id="svg1697"
   viewBox="0.00 0.00 325.00 295.00"
   version="1.1">
  <metadata
     id="metadata1703">
    <rdf:RDF>
      <cc:Work
         rdf:about="">
        <dc:format>image/svg+xml</dc:format>
        <dc:type
           rdf:resource="http://purl.org/dc/dcmitype/StillImage" />
      </cc:Work>
    </rdf:RDF>
  </metadata>
  <defs
     id="defs1701">
    <linearGradient
       inkscape:collect="always"
       id="linearGradient2292">
      <stop
         style="stop-color:#555555;stop-opacity:1"
         offset="0"
         id="stop2298" />
      <stop
         style="stop-color:#ffffff;stop-opacity:1"
         offset="1"
         id="stop2300" />
    </linearGradient>
    <linearGradient
       gradientTransform="translate(0.59092,-2)"
       gradientUnits="userSpaceOnUse"
       y2="70.055649"
       x2="250.12061"
       y1="222.20779"
       x1="85.38031"
       id="linearGradient2296"
       xlink:href="#linearGradient2292"
       inkscape:collect="always" />
  </defs>
  <sodipodi:namedview
     inkscape:current-layer="svg1697"
     inkscape:window-maximized="1"
     inkscape:window-y="25"
     inkscape:window-x="0"
     inkscape:cy="122.87106"
     inkscape:cx="91.076067"
     inkscape:zoom="1.8271186"
     showgrid="false"
     id="namedview1699"
     inkscape:window-height="747"
     inkscape:window-width="1280"
     inkscape:pageshadow="2"
     inkscape:pageopacity="0"
     guidetolerance="10"
     gridtolerance="10"
     objecttolerance="10"
     borderopacity="1"
     inkscape:document-rotation="0"
     bordercolor="#666666"
     pagecolor="#ffffff" />
  <path
     inkscape:connector-curvature="0"
     d="M 163.59375,28.101562 A 118.21893,118.21893 0 0 0 45.4707,146.32031 118.21893,118.21893 0 0 0 163.68945,264.53906 118.21893,118.21893 0 0 0 281.9082,146.32031 118.21893,118.21893 0 0 0 163.68945,28.101562 a 118.21893,118.21893 0 0 0 -0.0957,0 z m -0.24219,46.248047 a 71.971245,71.971245 0 0 1 0.33789,0 71.971245,71.971245 0 0 1 71.97071,71.970701 71.971245,71.971245 0 0 1 -71.97071,71.97266 71.971245,71.971245 0 0 1 -71.9707,-71.97266 71.971245,71.971245 0 0 1 71.63281,-71.970701 z"
     style="opacity:1;fill:url(#linearGradient2296);fill-opacity:1;fill-rule:evenodd;stroke:none;stroke-width:18.2647;stroke-linecap:round;stroke-linejoin:round;stroke-opacity:1"
     id="path2270" />
  <path
     id="path1677"
     d="   M 216.40 99.65   Q 209.65 92.10 201.47 86.89   Q 201.22 86.68 201.66 86.45   Q 214.13 80.18 227.98 79.05   Q 228.61 79.00 229.05 79.44   L 242.96 93.33   A 0.32 0.32 0.0 0 1 242.75 93.88   Q 229.07 94.81 216.40 99.65   Z"
     fill="#f1f1f0" />
  <path
     sodipodi:nodetypes="sccccccccccccccccccscccccccccccccccccccccccc"
     inkscape:connector-curvature="0"
     d="M 210.30273,65.476562 C 199.58544,65.404375 189.27021,67.1625 179.35938,70.75 l -11.0293,5.109375 c -14.51,9.19 -25.89977,19.900156 -35.50977,34.410155 -13.36,20.18 -23.34039,41.70133 -35.400388,62.36133 -8.64,14.8 -19.910781,28.97883 -34.050781,38.04883 -11.7,7.09 -23.179766,9.05031 -36.759766,8.82031 -0.43333,-0.007 -0.609297,0.20419 -0.529297,0.63086 0.03333,0.14667 0.179453,0.24553 0.439453,0.29883 14.7,3.12667 29.547683,3.42086 44.541016,0.88086 8.833333,-1.49333 17.443411,-4.09411 25.830078,-7.80078 7.639995,-3.37 15.149925,-6.58891 21.419925,-12.12891 20.77,-18.92 31.58945,-45.93133 44.18945,-70.36133 9.13,-17.71 20.18023,-33.589842 37.24023,-43.589842 0.54667,-0.32 1.1238,-0.499063 1.73047,-0.539063 -0.16667,-0.14 -0.10387,-0.288073 0.18946,-0.441406 8.31333,-4.18 17.08698,-6.645105 26.32031,-7.398438 10.33785,-1.276297 21.13808,-0.846649 31.61328,-1.390625 -10.92557,-5.831914 -31.56843,-11.815097 -44.67383,-12.041015 -1.5475,-0.085 -3.08614,-0.132266 -4.61719,-0.142579 z m 32.42579,28.367188 c 0.006,0.01218 0.0151,0.02495 0.0215,0.03711 -9.12,0.62 -17.90294,2.542865 -26.34961,5.769532 -46.51,19.949998 -60.15023,71.449688 -85.74023,109.929688 -9.3,13.85 -20.95977,26.61969 -36.509769,33.42969 -9.37,3.99 -18.881328,5.09039 -29.111329,4.65039 -0.206666,-0.007 -0.322939,0.0941 -0.349609,0.30078 l -0.03906,0.25976 c -0.04297,0.31528 0.168121,0.60923 0.480468,0.66992 13.28,2.62668 26.664871,3.08248 40.158199,1.36915 16.41,-2.2 30.46008,-7.58891 43.83008,-14.87891 2.25333,-1.23333 4.69675,-2.96784 7.33008,-5.20117 L 168.00977,218.25 c 0.20667,-0.41333 0.48031,-0.76722 0.82031,-1.06055 18.8,-25.13 27.90992,-55.36898 46.41992,-80.45898 3.88,-5.26667 8.67729,-10.26977 14.39062,-15.00977 8.12001,-6.44667 17.23938,-10.7614 27.35938,-12.9414 5.84667,-1.26 11.89706,-1.85577 18.15039,-1.78907 7.54,0.1 14.82294,0.21628 21.84961,0.34961 0.74667,0.0133 1.3207,-0.0339 1.7207,-0.14062 0.92,-0.23333 0.94985,-0.54612 0.0898,-0.93945 -8.98667,-4.13333 -18.23977,-7.532556 -27.75977,-10.199223 -8.96276,-2.266924 -20.0981,-2.4003 -28.32226,-2.216797 z"
     style="fill:#b3a06c;fill-opacity:1;stroke:none;stroke-opacity:1"
     id="path1669" />
</svg>
